<?xml version="1.0" encoding="UTF-8"?>
<svg version="1.1" xmlns="http://www.w3.org/2000/svg" width="500" height="500">
<path d="M0 0 C1.49453233 -0.00374194 2.9890627 -0.00834561 4.48359001 -0.01373065 C8.56890068 -0.0259091 12.65412914 -0.02570629 16.73945379 -0.02334189 C21.15408927 -0.02293241 25.56869885 -0.03398542 29.98332214 -0.04345703 C38.62477295 -0.06004008 47.26619647 -0.06556537 55.90766187 -0.06668179 C62.93579905 -0.06763361 69.96392727 -0.07175063 76.99206161 -0.07808304 C96.93945689 -0.09568869 116.88683068 -0.10492306 136.83423378 -0.10342209 C138.44586646 -0.10330222 138.44586646 -0.10330222 140.09005737 -0.10317993 C141.16579855 -0.10309817 142.24153973 -0.10301641 143.34987913 -0.10293217 C160.7754601 -0.10211963 178.20095456 -0.12125091 195.62651052 -0.14945666 C213.53986709 -0.17822204 231.45318153 -0.19199493 249.36656177 -0.19026911 C259.41510795 -0.18960644 269.46356346 -0.1950449 279.51208878 -0.21662521 C288.06909315 -0.23488521 296.62596574 -0.23914496 305.18298121 -0.22560637 C309.54349891 -0.21910075 313.90376414 -0.21887178 318.26425743 -0.23631287 C322.26669716 -0.25215621 326.26868663 -0.2490667 330.27111612 -0.2317446 C331.70851033 -0.22869924 333.14593911 -0.23221257 334.5832925 -0.24346475 C357.64096178 -0.41181703 378.1252078 7.59357147 394.87423706 23.45492554 C410.79334412 40.13870586 417.44582103 60.25727158 417.3916626 83.06089783 C417.39540344 84.5586919 417.40000668 86.05648401 417.40539324 87.55427307 C417.41758541 91.65324455 417.41736725 95.75213418 417.41500449 99.85111964 C417.41459536 104.2787244 417.4256448 108.70630327 417.43511963 113.13389587 C417.45171067 121.80288936 417.45722835 130.47185563 417.45834439 139.14086366 C417.45929592 146.19143132 417.46341147 153.24199003 417.46974564 160.29255486 C417.48735417 180.30119579 417.49658531 200.30981531 417.49508469 220.31846405 C417.49500478 221.39643823 417.49492486 222.47441242 417.49484253 223.58505249 C417.49476077 224.66434979 417.49467901 225.74364708 417.49459477 226.85565036 C417.49378235 244.33626027 417.5129099 261.81678392 417.54111926 279.29736889 C417.56988461 297.26493439 417.5836575 315.23245786 417.58193171 333.20004696 C417.58126899 343.27990706 417.58670929 353.35967677 417.60828781 363.43951607 C417.62654786 372.0239929 417.63080759 380.60833838 417.61726896 389.19282628 C417.61076312 393.56751359 417.61053517 397.94194926 417.62797546 402.31661224 C417.643818 406.33204435 417.64073008 410.34702762 417.6234072 414.36244952 C417.62036164 415.80458421 417.62387594 417.24675335 417.63512735 418.68884737 C417.73062623 431.81244255 415.66155602 444.95091878 409.37423706 456.64242554 C409.03062134 457.3025061 408.68700562 457.96258667 408.33297729 458.64266968 C405.23518601 464.41002193 401.55883059 469.44501584 397.12423706 474.26742554 C396.42556519 475.04601929 395.72689331 475.82461304 395.00704956 476.62680054 C389.66234958 482.29484536 383.88452179 486.43050718 377.12423706 490.26742554 C376.31083862 490.73019897 375.49744019 491.19297241 374.65939331 491.66976929 C364.48002474 497.09766598 353.31799915 500.38271424 341.76153755 500.40164661 C339.86171 500.40833338 339.86171 500.40833338 337.92350209 500.41515523 C336.52549878 500.41506595 335.12749547 500.41487612 333.72949219 500.41459656 C332.23841344 500.41789801 330.74733558 500.42162417 329.25625885 500.42573804 C325.16193211 500.43573441 321.06762002 500.43947102 316.97328281 500.44212735 C312.55585676 500.44603748 308.13844223 500.45561539 303.72102356 500.46434021 C293.05372291 500.48408566 282.38642133 500.49416887 271.71910697 500.503068 C266.69137785 500.50745446 261.66364977 500.51282038 256.63592148 500.51805687 C239.91477489 500.53506801 223.19362896 500.54956081 206.47247505 500.55680561 C202.13504155 500.5587154 197.79760805 500.56063575 193.46017456 500.56259155 C191.84316978 500.56331716 191.84316978 500.56331716 190.19349824 500.56405743 C172.74180117 500.57235263 155.29017275 500.59768144 137.83850564 500.63017223 C119.90720028 500.66328283 101.97592977 500.68125803 84.04459369 500.68444985 C73.98256794 500.68661135 63.92064228 500.69530713 53.85864639 500.72091103 C45.28691286 500.7426728 36.71530373 500.75064161 28.1435457 500.74094424 C23.77494972 500.73641524 19.40661012 500.73820363 15.0380497 500.75770569 C11.02805689 500.77545132 7.01850535 500.77424851 3.00850712 500.7588084 C1.56829821 500.75644945 0.12805782 500.76066543 -1.31210326 500.77263705 C-14.47673548 500.87517166 -27.60269186 498.7892149 -39.31326294 492.45492554 C-39.97737183 492.10728149 -40.64148071 491.75963745 -41.32571411 491.40145874 C-46.64936496 488.54259375 -51.40616869 485.35367867 -55.87576294 481.26742554 C-56.76779419 480.46691772 -57.65982544 479.66640991 -58.57888794 478.84164429 C-72.475006 465.7238607 -81.65808003 447.92170039 -83.15218055 428.71385896 C-83.26246553 424.81779665 -83.281378 420.9278745 -83.26344299 417.03089905 C-83.26762521 415.53377584 -83.27310756 414.0366558 -83.2797628 412.53954154 C-83.29411988 408.46096732 -83.29000346 404.38259685 -83.28259599 400.30401194 C-83.27784228 395.891468 -83.2903936 391.47896676 -83.3006134 387.06643677 C-83.3177641 378.43540775 -83.31864912 369.80445165 -83.3134005 361.17341002 C-83.30935038 354.15392227 -83.31081234 347.13445599 -83.31614876 340.11496925 C-83.31689718 339.11389406 -83.3176456 338.11281886 -83.3184167 337.08140806 C-83.31994827 335.0473687 -83.32148661 333.01332934 -83.32303167 330.97928999 C-83.33674338 311.92638131 -83.33132851 292.87351376 -83.31984646 273.82060603 C-83.30991686 256.41461162 -83.32285241 239.00872356 -83.34678065 221.60274556 C-83.37120127 203.70284926 -83.38077216 185.80300243 -83.37412792 167.90308982 C-83.37064211 157.86465443 -83.37282548 147.82630078 -83.39037895 137.78787804 C-83.40513808 129.24191865 -83.4056881 120.69609856 -83.38830804 112.1501418 C-83.37982589 107.79568409 -83.3775798 103.44147482 -83.39295959 99.08703041 C-83.40690055 95.09025349 -83.40192444 91.09393564 -83.38272036 87.09718464 C-83.3789886 85.66190228 -83.38179946 84.22658231 -83.39233201 82.79133376 C-83.49046586 68.37827571 -80.67753898 55.05556002 -73.87576294 42.26742554 C-73.21447388 41.00865601 -73.21447388 41.00865601 -72.53982544 39.72445679 C-68.82537449 33.10616711 -64.18486587 27.66530945 -58.87576294 22.26742554 C-58.18740356 21.56617554 -57.49904419 20.86492554 -56.78982544 20.14242554 C-40.92869288 5.04781612 -21.32859283 -0.05090963 0 0 Z " fill="#7D5440" transform="translate(82.87576293945313,-0.267425537109375)"/>
<path d="M0 0 C61.71 0 123.42 0 187 0 C187 41.25 187 82.5 187 125 C207.79 125 228.58 125 250 125 C250.16065467 154.34625371 250.16065467 154.34625371 250.20101547 168.93661499 C250.22310316 176.79898858 250.25105749 184.66119073 250.30175781 192.5234375 C250.34190693 198.75250285 250.36749869 204.98143829 250.37635398 211.21062946 C250.3815219 214.5022064 250.39564524 217.79333015 250.42292023 221.08480835 C250.55768306 238.03401156 250.48553733 254.0607077 242.25 269.375 C241.90638428 270.03508057 241.56276855 270.69516113 241.20874023 271.37524414 C238.11094895 277.14259639 234.43459353 282.17759031 230 287 C229.30132812 287.77859375 228.60265625 288.5571875 227.8828125 289.359375 C222.53811252 295.02741982 216.76028473 299.16308164 210 303 C209.18660156 303.46277344 208.37320312 303.92554688 207.53515625 304.40234375 C197.35578768 309.83024044 186.19376209 313.1152887 174.63730049 313.13422108 C172.73747294 313.14090784 172.73747294 313.14090784 170.79926503 313.14772969 C169.40126172 313.14764041 168.00325841 313.14745058 166.60525513 313.14717102 C165.11417638 313.15047247 163.62309852 313.15419863 162.13202178 313.1583125 C158.03769504 313.16830887 153.94338296 313.17204549 149.84904575 313.17470181 C145.4316197 313.17861195 141.01420517 313.18818985 136.5967865 313.19691467 C125.92948584 313.21666012 115.26218427 313.22674333 104.59486991 313.23564246 C99.56714079 313.24002893 94.53941271 313.24539484 89.51168442 313.25063133 C72.79053783 313.26764248 56.0693919 313.28213528 39.34823799 313.28938007 C35.01080449 313.29128986 30.67337099 313.29321021 26.3359375 313.29516602 C24.71893272 313.29589163 24.71893272 313.29589163 23.06926118 313.2966319 C5.61756411 313.30492709 -11.83406431 313.3302559 -29.28573142 313.36274669 C-47.21703678 313.39585729 -65.14830729 313.41383249 -83.07964337 313.41702431 C-93.14166912 313.41918582 -103.20359478 313.42788159 -113.26559067 313.45348549 C-121.8373242 313.47524727 -130.40893333 313.48321608 -138.98069136 313.47351871 C-143.34928734 313.4689897 -147.71762694 313.47077809 -152.08618736 313.49028015 C-156.09618017 313.50802579 -160.10573171 313.50682297 -164.11572994 313.49138286 C-165.55593885 313.48902392 -166.99617924 313.49323989 -168.43634032 313.50521151 C-181.60097254 313.60774612 -194.72692892 311.52178936 -206.4375 305.1875 C-207.10160889 304.83985596 -207.76571777 304.49221191 -208.44995117 304.1340332 C-213.77360202 301.27516821 -218.53040575 298.08625314 -223 294 C-223.89203125 293.19949219 -224.7840625 292.39898437 -225.703125 291.57421875 C-240.14903419 277.93743835 -249.74643627 258.96052204 -250.36076355 238.88102722 C-250.36928852 236.7568729 -250.36188067 234.63260951 -250.34057617 232.50854492 C-250.34101425 231.33621811 -250.34145233 230.1638913 -250.34190369 228.95603943 C-250.33983514 225.13067207 -250.31659574 221.30575832 -250.29296875 217.48046875 C-250.2873659 214.80861165 -250.28295125 212.13677877 -250.28010559 209.46492004 C-250.27083716 203.182484 -250.24629513 196.90020738 -250.21605712 190.61784106 C-250.17903358 182.7524196 -250.1627691 174.88697143 -250.14648438 167.02148438 C-250.11739329 153.0141992 -250.0572764 139.00726116 -250 125 C-229.54 125 -209.08 125 -188 125 C-188 104.54 -188 84.08 -188 63 C-167.21 63 -146.42 63 -125 63 C-125 104.25 -125 145.5 -125 188 C-104.54 188 -84.08 188 -63 188 C-63 146.75 -63 105.5 -63 63 C-42.21 63 -21.42 63 0 63 C0 42.21 0 21.42 0 0 Z " fill="#E8A378" transform="translate(250,187)"/>
<path d="M0 0 C40.59 0 81.18 0 123 0 C125.25 6.75 125.25 6.75 125.24609566 10.5489254 C125.25007775 11.41082021 125.25405985 12.27271502 125.25816262 13.16072786 C125.25233693 14.09264219 125.24651125 15.02455653 125.24050903 15.98471069 C125.24307231 17.48698068 125.24307231 17.48698068 125.24568737 19.01959956 C125.24897967 22.37300261 125.23798268 25.72620525 125.22705078 29.07958984 C125.22648661 31.48438512 125.22680334 33.88918075 125.22793579 36.29397583 C125.22839112 41.47006541 125.22272098 46.64610973 125.21146011 51.82218552 C125.19518952 59.30587032 125.18999551 66.78953076 125.18748413 74.27323134 C125.18310947 86.41572926 125.16980659 98.55820028 125.15087891 110.70068359 C125.13251417 122.49430202 125.11836057 134.28791313 125.10986328 146.08154297 C125.10933783 146.80879355 125.10881239 147.53604413 125.10827102 148.28533261 C125.1056609 151.93382214 125.10313349 155.58231172 125.10064721 159.23080134 C125.07992185 189.48722442 125.04305594 219.7435981 125 250 C104.21 250 83.42 250 62 250 C62 208.75 62 167.5 62 125 C0.29 125 -61.42 125 -125 125 C-125 145.79 -125 166.58 -125 188 C-145.79 188 -166.58 188 -188 188 C-188 229.25 -188 270.5 -188 313 C-208.46 313 -228.92 313 -250 313 C-250 271.75 -250 230.5 -250 188 C-270.79 188 -291.58 188 -313 188 C-313 208.46 -313 228.92 -313 250 C-333.46 250 -353.92 250 -375 250 C-375 208.75 -375 167.5 -375 125 C-313.29 125 -251.58 125 -188 125 C-188 104.54 -188 84.08 -188 63 C-125.96 63 -63.92 63 0 63 C0 42.21 0 21.42 0 0 Z " fill="#6E4D38" transform="translate(375,62)"/>
<path d="M0 0 C61.71 0 123.42 0 187 0 C187 62.04 187 124.08 187 188 C166.54 188 146.08 188 125 188 C125 146.75 125 105.5 125 63 C104.21 63 83.42 63 62 63 C62 104.25 62 145.5 62 188 C20.75 188 -20.5 188 -63 188 C-63 146.75 -63 105.5 -63 63 C-42.21 63 -21.42 63 0 63 C0 42.21 0 21.42 0 0 Z " fill="#FEDAB0" transform="translate(250,187)"/>
<path d="M0 0 C40.59 0 81.18 0 123 0 C125.25 6.75 125.25 6.75 125.24609566 10.5489254 C125.25007775 11.41082021 125.25405985 12.27271502 125.25816262 13.16072786 C125.25233693 14.09264219 125.24651125 15.02455653 125.24050903 15.98471069 C125.24221788 16.98622402 125.24392673 17.98773734 125.24568737 19.01959956 C125.24897967 22.37300261 125.23798268 25.72620525 125.22705078 29.07958984 C125.22648661 31.48438512 125.22680334 33.88918075 125.22793579 36.29397583 C125.22839112 41.47006541 125.22272098 46.64610973 125.21146011 51.82218552 C125.19518952 59.30587032 125.18999551 66.78953076 125.18748413 74.27323134 C125.18310947 86.41572926 125.16980659 98.55820028 125.15087891 110.70068359 C125.13251417 122.49430202 125.11836057 134.28791313 125.10986328 146.08154297 C125.10933783 146.80879355 125.10881239 147.53604413 125.10827102 148.28533261 C125.1056609 151.93382214 125.10313349 155.58231172 125.10064721 159.23080134 C125.07992185 189.48722442 125.04305594 219.7435981 125 250 C104.21 250 83.42 250 62 250 C62 208.75 62 167.5 62 125 C20.75 125 -20.5 125 -63 125 C-63 104.54 -63 84.08 -63 63 C-42.21 63 -21.42 63 0 63 C0 42.21 0 21.42 0 0 Z " fill="#4A3622" transform="translate(375,62)"/>
<path d="M0 0 C20.79 0 41.58 0 63 0 C63 61.71 63 123.42 63 187 C-19.5 187 -102 187 -187 187 C-187 166.54 -187 146.08 -187 125 C-125.29 125 -63.58 125 0 125 C0 83.75 0 42.5 0 0 Z " fill="#F9CEA2" transform="translate(312,250)"/>
<path d="M0 0 C20.79 0 41.58 0 63 0 C63.16065467 29.34625371 63.16065467 29.34625371 63.20101547 43.93661499 C63.22310316 51.79898858 63.25105749 59.66119073 63.30175781 67.5234375 C63.34190693 73.75250285 63.36749869 79.98143829 63.37635398 86.21062946 C63.3815219 89.5022064 63.39564524 92.79333015 63.42292023 96.08480835 C63.55768306 113.03401156 63.48553733 129.0607077 55.25 144.375 C54.90638428 145.03508057 54.56276855 145.69516113 54.20874023 146.37524414 C51.11094895 152.14259639 47.43459353 157.17759031 43 162 C41.95199219 163.16789062 41.95199219 163.16789062 40.8828125 164.359375 C35.53811252 170.02741982 29.76028473 174.16308164 23 178 C22.18660156 178.46277344 21.37320313 178.92554688 20.53515625 179.40234375 C8.31746813 185.91712396 -3.92893216 188.15858651 -17.60498047 188.11352539 C-18.76653152 188.11367142 -19.92808258 188.11381744 -21.12483215 188.1139679 C-24.95563641 188.11327247 -28.78639176 188.10549734 -32.6171875 188.09765625 C-35.27662234 188.09579076 -37.93605448 188.09431826 -40.5954895 188.09336853 C-46.87454908 188.09026537 -53.15359117 188.0820657 -59.43264306 188.07201904 C-67.28582117 188.05972755 -75.13900216 188.05426733 -82.9921875 188.04882812 C-96.99480528 188.03909967 -110.99738491 188.01906559 -125 188 C-125 167.21 -125 146.42 -125 125 C-104.21 125 -83.42 125 -62 125 C-62 104.54 -62 84.08 -62 63 C-41.54 63 -21.08 63 0 63 C0 42.21 0 21.42 0 0 Z " fill="#E7A378" transform="translate(437,312)"/>
<path d="M0 0 C20.79 0 41.58 0 63 0 C63 61.71 63 123.42 63 187 C42.21 187 21.42 187 0 187 C0 125.29 0 63.58 0 0 Z " fill="#533729" transform="translate(437,125)"/>
<path d="M0 0 C41.25 0 82.5 0 125 0 C125 20.46 125 40.92 125 62 C104.54 62 84.08 62 63 62 C63 82.79 63 103.58 63 125 C42.21 125 21.42 125 0 125 C0 83.75 0 42.5 0 0 Z " fill="#664A34" transform="translate(187,125)"/>
<path d="M0 0 C20.46 0 40.92 0 62 0 C62 62.04 62 124.08 62 188 C41.54 188 21.08 188 0 188 C0 125.96 0 63.92 0 0 Z " fill="#FACEA8" transform="translate(375,187)"/>
<path d="M0 0 C41.25 0 82.5 0 125 0 C125 20.79 125 41.58 125 63 C83.75 63 42.5 63 0 63 C0 42.21 0 21.42 0 0 Z " fill="#F8CE9C" transform="translate(187,437)"/>
<path d="M0 0 C20.79 0 41.58 0 63 0 C63 41.25 63 82.5 63 125 C42.21 125 21.42 125 0 125 C0 83.75 0 42.5 0 0 Z " fill="#223248" transform="translate(312,250)"/>
<path d="M0 0 C20.79 0 41.58 0 63 0 C63 41.25 63 82.5 63 125 C42.21 125 21.42 125 0 125 C0 83.75 0 42.5 0 0 Z " fill="#EEEEEF" transform="translate(62,250)"/>
<path d="M0 0 C20.46 0 40.92 0 62 0 C62 41.25 62 82.5 62 125 C41.54 125 21.08 125 0 125 C0 83.75 0 42.5 0 0 Z " fill="#223248" transform="translate(125,250)"/>
<path d="M0 0 C20.79 0 41.58 0 63 0 C63 20.79 63 41.58 63 63 C42.21 63 21.42 63 0 63 C0 42.21 0 21.42 0 0 Z " fill="#F0B48C" transform="translate(312,437)"/>
<path d="M0 0 C20.79 0 41.58 0 63 0 C63 20.79 63 41.58 63 63 C42.21 63 21.42 63 0 63 C0 42.21 0 21.42 0 0 Z " fill="#F0B48C" transform="translate(437,312)"/>
<path d="M0 0 C20.79 0 41.58 0 63 0 C63 20.79 63 41.58 63 63 C42.21 63 21.42 63 0 63 C0 42.21 0 21.42 0 0 Z " fill="#5E3E2E" transform="translate(187,187)"/>
<path d="M0 0 C20.79 0 41.58 0 63 0 C63 20.79 63 41.58 63 63 C42.21 63 21.42 63 0 63 C0 42.21 0 21.42 0 0 Z " fill="#664A34" transform="translate(312,62)"/>
<path d="M0 0 C20.46 0 40.92 0 62 0 C62 20.79 62 41.58 62 63 C41.54 63 21.08 63 0 63 C0 42.21 0 21.42 0 0 Z " fill="#F0B48C" transform="translate(125,437)"/>
<path d="M0 0 C20.79 0 41.58 0 63 0 C63 20.46 63 40.92 63 62 C42.21 62 21.42 62 0 62 C0 41.54 0 21.08 0 0 Z " fill="#F0B48C" transform="translate(62,375)"/>
<path d="M0 0 C20.46 0 40.92 0 62 0 C62 20.79 62 41.58 62 63 C41.54 63 21.08 63 0 63 C0 42.21 0 21.42 0 0 Z " fill="#EEEEEE" transform="translate(375,312)"/>
<path d="M0 0 C20.46 0 40.92 0 62 0 C62 20.79 62 41.58 62 63 C41.54 63 21.08 63 0 63 C0 42.21 0 21.42 0 0 Z " fill="#F0B48C" transform="translate(0,312)"/>
<path d="M0 0 C20.79 0 41.58 0 63 0 C63 20.46 63 40.92 63 62 C42.21 62 21.42 62 0 62 C0 41.54 0 21.08 0 0 Z " fill="#483022" transform="translate(437,250)"/>
<path d="M0 0 C20.79 0 41.58 0 63 0 C63 20.46 63 40.92 63 62 C42.21 62 21.42 62 0 62 C0 41.54 0 21.08 0 0 Z " fill="#2C3E58" transform="translate(312,250)"/>
<path d="M0 0 C20.79 0 41.58 0 63 0 C63 20.46 63 40.92 63 62 C42.21 62 21.42 62 0 62 C0 41.54 0 21.08 0 0 Z " fill="#D6CABC" transform="translate(62,250)"/>
<path d="M0 0 C20.79 0 41.58 0 63 0 C63 20.46 63 40.92 63 62 C42.21 62 21.42 62 0 62 C0 41.54 0 21.08 0 0 Z " fill="#4F4024" transform="translate(312,125)"/>
<path d="M0 0 C20.46 0 40.92 0 62 0 C62 20.79 62 41.58 62 63 C41.54 63 21.08 63 0 63 C0 42.21 0 21.42 0 0 Z " fill="#674A34" transform="translate(125,62)"/>
<path d="M0 0 C20.46 0 40.92 0 62 0 C62 20.46 62 40.92 62 62 C41.54 62 21.08 62 0 62 C0 41.54 0 21.08 0 0 Z " fill="#F0B48C" transform="translate(375,375)"/>
<path d="M0 0 C20.46 0 40.92 0 62 0 C62 20.46 62 40.92 62 62 C41.54 62 21.08 62 0 62 C0 41.54 0 21.08 0 0 Z " fill="#D6CABC" transform="translate(375,250)"/>
<path d="M0 0 C20.46 0 40.92 0 62 0 C62 20.46 62 40.92 62 62 C41.54 62 21.08 62 0 62 C0 41.54 0 21.08 0 0 Z " fill="#2C3E58" transform="translate(125,250)"/>
<path d="M0 0 C20.46 0 40.92 0 62 0 C62 20.46 62 40.92 62 62 C41.54 62 21.08 62 0 62 C0 41.54 0 21.08 0 0 Z " fill="#604030" transform="translate(0,250)"/>
<path d="M0 0 C20.46 0 40.92 0 62 0 C62 20.46 62 40.92 62 62 C41.54 62 21.08 62 0 62 C0 41.54 0 21.08 0 0 Z " fill="#38301A" transform="translate(375,125)"/>
<path d="M0 0 C20.46 0 40.92 0 62 0 C62 20.46 62 40.92 62 62 C41.54 62 21.08 62 0 62 C0 41.54 0 21.08 0 0 Z " fill="#4E4124" transform="translate(0,125)"/>
<path d="M0 0 C0 19.8 0 39.6 0 60 C-19.8 60 -39.6 60 -60 60 C-56.47377102 44.1319696 -49.38312831 31.57348163 -38 20 C-37.31164062 19.29875 -36.62328125 18.5975 -35.9140625 17.875 C-26.93464344 9.32953056 -12.73720348 0 0 0 Z " fill="#5E3F30" transform="translate(62,2)"/>
</svg>
